<?xml version="1.0" standalone="no"?>
<!DOCTYPE svg PUBLIC "-//W3C//DTD SVG 20010904//EN"
 "http://www.w3.org/TR/2001/REC-SVG-20010904/DTD/svg10.dtd">
<svg version="1.0" xmlns="http://www.w3.org/2000/svg"
 width="1080.000000pt" height="1080.000000pt" viewBox="0 0 1080.000000 1080.000000"
 preserveAspectRatio="xMidYMid meet">

<g transform="translate(0.000000,1080.000000) scale(0.100000,-0.100000)"
fill="#000000" stroke="none">
<path d="M5190 10793 c-1189 -47 -2328 -484 -3240 -1244 -731 -608 -1295
-1407 -1616 -2286 -224 -614 -327 -1204 -327 -1863 0 -285 10 -447 44 -708
173 -1340 852 -2569 1899 -3441 739 -616 1633 -1024 2573 -1176 1045 -168
2104 -35 3053 386 1422 628 2507 1839 2971 3314 169 538 246 1045 246 1625 0
399 -34 746 -110 1105 -356 1702 -1513 3129 -3107 3834 -739 328 -1573 486
-2386 454z m580 -1733 c174 -29 432 -98 445 -119 14 -23 -291 -176 -480 -241
-408 -140 -814 -172 -1231 -95 -119 22 -346 84 -382 104 -19 11 61 59 237 145
221 107 497 188 754 221 162 21 492 13 657 -15z m825 -295 c104 -61 237 -154
331 -231 29 -24 107 -352 139 -586 23 -162 30 -505 16 -679 -53 -623 -271
-1200 -646 -1711 l-27 -37 23 -33 c90 -130 268 -318 399 -422 112 -89 114 -93
15 -31 -214 135 -529 269 -736 314 -141 30 -409 54 -409 37 0 -14 80 -188 130
-283 l59 -113 -42 -33 c-181 -147 -406 -286 -639 -396 -117 -56 -358 -150
-423 -165 -16 -4 -32 -12 -36 -17 -12 -20 -289 85 -478 181 -299 151 -588 399
-809 694 l-52 69 81 50 c45 27 118 77 162 111 l80 61 37 115 c38 119 93 256
136 341 l24 49 -132 -69 c-156 -81 -321 -148 -468 -190 -164 -46 -150 -50
-187 51 -71 188 -123 413 -144 617 -14 140 -6 447 15 584 65 401 208 744 457
1089 3 4 50 -12 105 -36 120 -53 317 -117 446 -145 320 -69 704 -69 1028 0
239 52 554 181 763 312 206 131 439 335 572 501 33 41 65 75 71 75 5 1 68 -33
139 -74z m-2164 -5378 c81 -268 157 -506 168 -528 12 -22 21 -42 21 -44 0 -3
-70 -5 -155 -5 -141 0 -176 6 -145 25 13 8 13 73 1 111 -6 16 -26 82 -46 147
l-36 117 -84 0 -83 0 -6 -47 c-3 -27 -10 -101 -16 -166 -9 -101 -8 -124 5
-150 8 -16 15 -32 15 -34 0 -1 -63 -3 -140 -3 -77 0 -140 2 -140 4 0 3 9 20
19 38 11 18 77 220 146 448 135 446 136 453 90 509 l-25 29 23 6 c12 3 47 6
77 7 30 0 73 7 95 14 22 7 46 12 54 12 10 -2 60 -151 162 -490z m4076 422
c148 -47 185 -49 221 -11 15 15 32 37 38 47 11 19 13 18 24 -10 6 -16 12 -55
13 -86 1 -104 -57 -169 -151 -169 -59 0 -94 18 -182 97 -149 132 -272 147
-239 29 14 -52 96 -130 286 -274 168 -128 256 -212 289 -278 27 -56 26 -175
-3 -229 -43 -81 -114 -125 -200 -125 -27 0 -111 18 -187 40 -190 55 -260 52
-288 -12 -16 -35 -26 -35 -38 -2 -25 63 -4 162 44 210 79 79 174 66 296 -41
100 -88 164 -125 217 -125 53 0 62 22 35 83 -26 59 -103 133 -273 263 -200
153 -231 183 -263 254 -37 81 -43 151 -21 226 30 105 125 171 225 158 19 -3
90 -23 157 -45z m-6207 21 c0 -5 -4 -10 -9 -10 -21 0 -31 -71 -31 -211 l0
-149 126 0 126 0 -4 164 c-2 139 -6 167 -20 183 -10 11 -18 23 -18 26 0 4 74
7 165 7 103 0 165 -4 165 -10 0 -5 -4 -10 -9 -10 -28 0 -32 -65 -29 -507 3
-413 4 -453 21 -470 9 -11 17 -23 17 -26 0 -4 -74 -7 -165 -7 -91 0 -165 1
-165 3 0 1 9 20 20 42 18 36 20 59 20 292 l0 253 -125 0 -126 0 3 -269 c3
-240 5 -271 21 -288 9 -11 17 -23 17 -26 0 -4 -74 -7 -165 -7 -91 0 -165 3
-165 7 0 3 8 15 18 26 16 17 17 57 20 461 3 430 -2 516 -28 516 -6 0 -10 5
-10 10 0 6 62 10 165 10 103 0 165 -4 165 -10z m960 0 c0 -5 -4 -10 -9 -10 -5
0 -15 -15 -22 -32 -11 -26 -14 -118 -14 -443 0 -408 0 -410 22 -441 46 -65
140 -71 197 -15 l31 31 0 429 0 429 -23 31 -23 31 172 0 c163 0 171 -1 157
-17 -8 -10 -19 -27 -23 -38 -5 -11 -11 -189 -14 -395 -7 -421 -6 -415 -84
-493 -64 -64 -134 -90 -259 -95 -89 -4 -118 -1 -179 18 -61 18 -81 30 -130 79
-88 88 -89 96 -89 511 0 326 -1 348 -20 385 -11 22 -20 41 -20 42 0 2 74 3
165 3 103 0 165 -4 165 -10z m1664 -215 c49 -124 91 -224 92 -222 6 6 44 314
44 356 0 26 -7 56 -16 69 l-15 22 147 0 147 0 -21 -22 c-11 -13 -71 -128 -132
-256 l-112 -234 4 -227 c3 -196 5 -231 21 -254 9 -14 17 -29 17 -32 0 -3 -74
-5 -165 -5 -91 0 -165 2 -165 5 0 3 10 19 22 36 21 29 23 42 26 237 l4 207
-82 175 c-45 96 -95 207 -111 246 -17 40 -39 80 -49 89 -11 10 -20 22 -20 27
0 4 62 8 138 8 l137 0 89 -225z m1171 193 c98 -51 135 -118 135 -240 0 -100
-26 -165 -85 -217 -70 -61 -114 -74 -263 -79 l-134 -4 4 -197 c2 -167 6 -201
21 -224 9 -14 17 -29 17 -32 0 -3 -72 -5 -160 -5 -88 0 -160 2 -160 5 0 3 8
18 18 32 16 25 17 65 17 478 0 413 -1 453 -17 478 -10 14 -18 29 -18 32 0 3
129 5 288 3 l287 -3 50 -27z m553 1 l-23 -31 -3 -462 -3 -463 59 8 c128 18
235 76 311 170 25 32 50 58 55 58 5 1 6 -20 3 -46 -4 -27 -12 -90 -18 -140
l-12 -93 -338 0 c-187 0 -339 2 -339 5 0 3 8 18 18 32 16 25 17 65 17 478 0
413 -1 453 -17 478 -10 14 -18 29 -18 32 0 3 74 5 165 5 l166 0 -23 -31z m832
24 c0 -3 -8 -15 -17 -26 -16 -17 -18 -56 -21 -449 l-3 -430 39 -39 c34 -33 46
-39 81 -39 23 0 55 7 71 15 60 31 60 34 60 483 0 395 -5 472 -31 472 -5 0 -9
5 -9 10 0 6 62 10 165 10 103 0 165 -4 165 -10 0 -5 -4 -10 -9 -10 -22 0 -26
-56 -31 -410 -5 -364 -6 -376 -28 -425 -31 -68 -82 -118 -156 -152 -57 -26
-69 -28 -191 -28 -127 0 -132 1 -197 33 -40 19 -81 49 -102 74 -63 73 -66 94
-66 458 0 329 -8 426 -35 446 -8 6 -15 14 -15 18 0 3 74 6 165 6 91 0 165 -3
165 -7z"/>
<path d="M6053 7733 c-67 -87 -160 -227 -191 -288 l-20 -41 77 9 77 9 18 72
c11 39 38 126 61 194 23 67 41 122 39 122 -1 0 -28 -35 -61 -77z"/>
<path d="M4106 3599 c-5 -16 -26 -270 -26 -311 0 -28 0 -28 70 -28 39 0 70 3
70 6 0 8 -102 338 -106 343 -2 2 -5 -2 -8 -10z"/>
<path d="M5750 3560 l0 -240 35 0 c73 0 140 43 178 115 18 32 22 57 22 130 0
77 -4 96 -24 132 -37 65 -103 103 -177 103 l-34 0 0 -240z"/>
</g>
</svg>
